<?xml version="1.0" encoding="UTF-8"?> <svg xmlns="http://www.w3.org/2000/svg" width="71" height="63" viewBox="0 0 71 63" fill="none"><path d="M35.4464 34.8955C24.1581 21.2457 -2.3655 36.5692 33.5668 61.7565C34.6842 62.5395 36.2087 62.5395 37.3261 61.7565C73.2584 36.5692 46.7348 21.2457 35.4464 34.8955Z" fill="white"></path><path d="M3.26935 38.3166C11.9629 28.5769 21.9247 20.0679 32.9803 12.9326C34.469 11.9721 36.4278 11.9721 37.9165 12.9326C48.9731 20.067 58.9339 28.5769 67.6275 38.3166C68.6526 39.4647 70.6039 38.7751 70.6039 37.2618V28.5398C70.6039 26.992 69.9895 25.4959 68.8655 24.3886C59.7169 15.3784 49.464 7.50824 38.2406 0.905803L37.793 0.642104C36.3534 -0.204269 34.5425 -0.204269 33.1028 0.642104L32.6553 0.905803C21.431 7.50824 11.1781 15.3784 2.03131 24.3877C0.907276 25.495 0.292969 26.992 0.292969 28.5389V37.2609C0.292969 38.7742 2.24424 39.4638 3.26935 38.3157V38.3166Z" fill="white"></path></svg> 