<svg xmlns="http://www.w3.org/2000/svg" width="400" height="400" viewBox="0 0 400 400" fill="none">
  <!-- Flower of Life — white variant for dark backgrounds -->
  <circle cx="200" cy="200" r="190" stroke="#ffffff" stroke-width="1.5" opacity="0.08"/>
  <circle cx="200" cy="200" r="155" stroke="#ffffff" stroke-width="1" opacity="0.05"/>

  <!-- Outer ring -->
  <circle cx="200" cy="128" r="72" stroke="#ffffff" stroke-width="1.8" opacity="0.15"/>
  <circle cx="262.4" cy="164" r="72" stroke="#ffffff" stroke-width="1.8" opacity="0.15"/>
  <circle cx="262.4" cy="236" r="72" stroke="#ffffff" stroke-width="1.8" opacity="0.15"/>
  <circle cx="200" cy="272" r="72" stroke="#ffffff" stroke-width="1.8" opacity="0.15"/>
  <circle cx="137.6" cy="236" r="72" stroke="#ffffff" stroke-width="1.8" opacity="0.15"/>
  <circle cx="137.6" cy="164" r="72" stroke="#ffffff" stroke-width="1.8" opacity="0.15"/>

  <!-- Second ring -->
  <circle cx="231.2" cy="146" r="72" stroke="#ffffff" stroke-width="1.5" opacity="0.1"/>
  <circle cx="268.8" cy="200" r="72" stroke="#ffffff" stroke-width="1.5" opacity="0.1"/>
  <circle cx="231.2" cy="254" r="72" stroke="#ffffff" stroke-width="1.5" opacity="0.1"/>
  <circle cx="168.8" cy="254" r="72" stroke="#ffffff" stroke-width="1.5" opacity="0.1"/>
  <circle cx="131.2" cy="200" r="72" stroke="#ffffff" stroke-width="1.5" opacity="0.1"/>
  <circle cx="168.8" cy="146" r="72" stroke="#ffffff" stroke-width="1.5" opacity="0.1"/>

  <!-- Inner ring -->
  <circle cx="200" cy="164" r="36" stroke="#ffffff" stroke-width="2.5" opacity="0.35"/>
  <circle cx="231.2" cy="182" r="36" stroke="#ffffff" stroke-width="2.5" opacity="0.35"/>
  <circle cx="231.2" cy="218" r="36" stroke="#ffffff" stroke-width="2.5" opacity="0.35"/>
  <circle cx="200" cy="236" r="36" stroke="#ffffff" stroke-width="2.5" opacity="0.35"/>
  <circle cx="168.8" cy="218" r="36" stroke="#ffffff" stroke-width="2.5" opacity="0.35"/>
  <circle cx="168.8" cy="182" r="36" stroke="#ffffff" stroke-width="2.5" opacity="0.35"/>

  <!-- Center -->
  <circle cx="200" cy="200" r="36" stroke="#ffffff" stroke-width="3" opacity="0.45"/>
  <circle cx="200" cy="200" r="6" fill="#ffffff" opacity="0.3"/>
</svg>
